# xmcd
#
# Track frame offsets:
#	150
#	22118
#	43462
#	66102
#	86347
#	97512
#	109458
#	133114
#	155638
#	172082
#
# Disc length: 2561 seconds
#
# Revision: 1
# Processed by: cddbd v1.4PL0 Copyright (c) Steve Scherf et al.
# Submitted via: audiograbber 1.80.04
#
DISCID=8809ff0a
DTITLE=kasey anderson - Harold St. Blues
DYEAR=2001
DGENRE=Blues
TTITLE0=BLVD.
TTITLE1=OXFORD BLUES
TTITLE2=THE BALLAD OF JOSEPH BROWN
TTITLE3=MY LAST APOLOGY
TTITLE4=DIVISION ST.
TTITLE5=GAMBLIN' MAN
TTITLE6=RAINING IN HATTIESBURG
TTITLE7=GOODNIGHT NY
TTITLE8=OUTLAW'S LAMENT
TTITLE9=HAROLD ST. BLUES
EXTD=
EXTT0=
EXTT1=
EXTT2=
EXTT3=
EXTT4=
EXTT5=
EXTT6=
EXTT7=
EXTT8=
EXTT9=
PLAYORDER=
